<?xml version="1.0" encoding="UTF-8" standalone="no"?>
<svg
   xmlns:dc="http://purl.org/dc/elements/1.1/"
   xmlns:cc="http://creativecommons.org/ns#"
   xmlns:rdf="http://www.w3.org/1999/02/22-rdf-syntax-ns#"
   xmlns:svg="http://www.w3.org/2000/svg"
   xmlns="http://www.w3.org/2000/svg"
   xmlns:sodipodi="http://sodipodi.sourceforge.net/DTD/sodipodi-0.dtd"
   xmlns:inkscape="http://www.inkscape.org/namespaces/inkscape"
   width="32"
   height="32"
   viewBox="0 0 8.4666665 8.4666669"
   version="1.1"
   id="svg8"
   inkscape:version="1.0.2 (1.0.2+r75+1)"
   sodipodi:docname="up-arrow.svg">
  <defs
     id="defs2" />
  <sodipodi:namedview
     id="base"
     pagecolor="#525252"
     bordercolor="#666666"
     borderopacity="1.0"
     inkscape:pageopacity="0"
     inkscape:pageshadow="2"
     inkscape:zoom="11.0625"
     inkscape:cx="16.090395"
     inkscape:cy="16"
     inkscape:document-units="mm"
     inkscape:current-layer="layer1"
     inkscape:document-rotation="0"
     showgrid="false"
     units="px"
     inkscape:snap-page="true"
     inkscape:window-width="1366"
     inkscape:window-height="736"
     inkscape:window-x="0"
     inkscape:window-y="0"
     inkscape:window-maximized="1" />
  <metadata
     id="metadata5">
    <rdf:RDF>
      <cc:Work
         rdf:about="">
        <dc:format>image/svg+xml</dc:format>
        <dc:type
           rdf:resource="http://purl.org/dc/dcmitype/StillImage" />
        <dc:title />
      </cc:Work>
    </rdf:RDF>
  </metadata>
  <g
     inkscape:label="Layer 1"
     inkscape:groupmode="layer"
     id="layer1">
    <rect
       style="fill:#1a1a1a;stroke-width:0.264583;stroke-linecap:round"
       id="rect831"
       width="6.8896184"
       height="4.6626806"
       x="0.69499981"
       y="2.0305159"
       ry="0.30845654" />
    <path
       id="path835"
       style="opacity:1;fill:#ffffff;stroke-width:0.999999;stroke-linecap:round"
       d="M 16 0 A 15.999999 15.999999 0 0 0 0 16 A 15.999999 15.999999 0 0 0 16 32 A 15.999999 15.999999 0 0 0 32 16 A 15.999999 15.999999 0 0 0 16 0 z M 16 7.8320312 C 16.305116 7.8320312 16.610149 7.9480405 16.84375 8.1816406 L 28.378906 19.716797 C 28.509878 19.847768 28.592851 20.002683 28.650391 20.166016 L 23.121094 20.166016 C 23.06403 20.00548 22.980361 19.853408 22.851562 19.724609 L 16.835938 13.708984 C 16.373434 13.246481 15.626566 13.246481 15.164062 13.708984 L 9.1484375 19.724609 C 9.0196388 19.853408 8.9359696 20.00548 8.8789062 20.166016 L 3.3496094 20.166016 C 3.4071493 20.002684 3.4901203 19.847769 3.6210938 19.716797 L 15.15625 8.1816406 C 15.38985 7.9480394 15.694883 7.8320312 16 7.8320312 z "
       transform="scale(0.26458333)" />
  </g>
</svg>
